# xmcd
#
# Track frame offsets: 
#        150
#        16573
#        30483
#        41356
#        61116
#        71426
#        84961
#        112296
#        126205
#        136759
#        145534
#        165407
#        179505
#        202340
#        219700
#
# Disc length: 3111 seconds
#
# Revision: 0
# Processed by: cddbd v1.5PL3 Copyright (c) Steve Scherf et al.
# Submitted via: ExactAudioCopy v0.95a3
#
DISCID=c90c250f
DTITLE=Zvonko Bogdan - Uspomena na vreme koje se sigurno ponoviti nece
DYEAR=2003
DGENRE=Ethnic
TTITLE0=Kad sam bio mladjan lovac ja - Ta tvoja suknja plava
TTITLE1=Sto se bore misli moje
TTITLE2=Ljubio sam crno oko
TTITLE3=Jesen stize dunjo moja
TTITLE4=U tom Somboru
TTITLE5=Ja nekog volim i nekog ljubim
TTITLE6=Bunjevacko prelo
TTITLE7=Zivim zivot k`o skitnica
TTITLE8=Zabaljka
TTITLE9=Tera Lenka
TTITLE10=Ko te ima taj te nema
TTITLE11=Kupicu ti cipelice - Zemio se stari cigan - Aj, aj, aj, aj, a
TTITLE11=j
TTITLE12=Cele noci ladovina - On je majko bekrija
TTITLE13=Osam tamburasa
TTITLE14=Evo banke - Nema lepse devojke
EXTD=
EXTT0=
EXTT1=
EXTT2=
EXTT3=
EXTT4=
EXTT5=
EXTT6=
EXTT7=
EXTT8=
EXTT9=
EXTT10=
EXTT11=
EXTT12=
EXTT13=
EXTT14=
PLAYORDER=
